<?xml version="1.0" encoding="UTF-8"?>
<svg width="585" height="173" version="1.1" viewBox="0 0 585 173" xmlns="http://www.w3.org/2000/svg">
	<defs>
		<clipPath id="text" transform="translate(0 173)">
			<path d="m260 61.8 10.8-7.56 1.98 2.06-0.53 19.6 22.3-17.9 16.8-0.014-63.2 76.8-5.84 1.12-5.87 4.3-2.53-0.281-18.9 20.7-1.54-1.38 64.5-78.6-7.38 4.85-9.82-11z"/>
			<path d="m403 53-82.8 5.01-15.4 30-13.7 4.94 6.05 5.19 3.98-0.639-33.5 68 5.96-3.1 5.3-12.9 16.9-11.6 20.4-40.7 84.9-28.1zm-22.1 12.3-55.8 17 6.98-13.7z"/>
			<path d="m372 79.1-10.9 28.1 9.08 6.29 23.2-15.9-4.65 10.1 10.2 5.36 28.8-49.7-3.63-6.89 1.44-2.83-0.211-3.1 1.33-2.16-2.28-1.38-22.9 36.7-24.4 15.9 5.93-15.7 0.409-5.96z"/>
			<path d="m409 106 26.5-49.5 1.2 0.418-0.416 3.87 3.78 0.297 7.32 26.1 15.5-26.6 13.9-0.661-25.1 45.9-10.5 0.77-5.69-21.7-11.7 18.9z"/>
			<path d="m465 105 4.39-8.44-2.18-5.5 19.7-38.1 2.64 2.6 12.8-0.613-9.25 17.7 79.8-38.5-0.147 2.05-4.76 3.11-6.24 8.39-20.1 10.3-2.55 3.18-33.9 17.1 19.1 10.4-2.12 3.54 5.97 3.31 0.101 3.14 1.47 1.06-0.123 4.11 53.7 29.8 3.35-1.35 6.62 3.78 0.967 3.44 2.35 0.927-0.175 4.37-91.3-49-0.933-1.33-17.1-10.3-14.7 26.2z"/>
			<path d="m163 57.2-27.9 39.7 7.31 6.75 46.1-9.36 4.25-6.03 1.12-4.01-36.6 6.41 5.57-9.75 30-2.08 4.98-8.3-30.3 1.05 1.8-4.65 14.3-0.0549 2.62-3.13 20.8 0.387 4.4-5.56-23.1 0.348-3.29-1.58z"/>
			<path d="m135-3.01-0.438 5.81 8.03 14.2-124 81.4-4.83-0.984-2.93 1.76 22.6 11.2 76.4-4.98 4.54-2.15 13.3 0.805-0.23 1.82 9.77-8.78-2.64-4.83-5.46-0.619-31.5-27 56.3 2.64-8.18-67.9zm0.354 40.5 4.05 14.1-18.5-2.56zm-52.5 40 20.4 15.9-44.6-1.43z"/>
			<path d="m270 63.4 1.81 3.47-64.5 48.7-16.5-11.4 32.1-39.2 5.77-1.75 4.32-5.11 4.43-0.696 8.73-10.7 1.26 1.01-11.1 14.1-1.54 7.04-21.4 26.9 37.5-25.8 9.11 0.604z"/>
		</clipPath>
	</defs>
	<g transform="translate(-11.1 3.01)">
		<g fill="#51bcdc">
			<path d="m464 101 4.39-8.44-2.18-5.5 19.7-38.1 2.64 2.6 12.8-0.613-9.25 17.7 79.8-38.5-0.147 2.05-4.76 3.11-6.24 8.39-20.1 10.3-2.55 3.18-33.9 17.1 19.1 10.4-2.12 3.54 5.97 3.31 0.101 3.14 1.47 1.06-0.123 4.11 53.7 29.8 3.35-1.35 6.62 3.78 0.967 3.44 2.35 0.927-0.175 4.37-91.3-49-0.933-1.33-17.1-10.3-14.7 26.2z"/>
			<path d="m406 103 26.5-49.5 1.2 0.418-0.416 3.87 3.78 0.297 7.32 26.1 15.5-26.6 13.9-0.661-25.1 45.9-10.5 0.77-5.69-21.7-11.7 18.9z"/>
			<path d="m368 83.5-10.9 28.1 9.08 6.29 23.2-15.9-4.65 10.1 10.2 5.36 28.8-49.7-3.63-6.89 1.44-2.83-0.211-3.1 1.33-2.16-2.28-1.38-22.9 36.7-24.4 15.9 5.93-15.7 0.409-5.96z"/>
			<path d="m402 57.5-82.8 5.01-15.4 30-13.7 4.94 6.05 5.19 3.98-0.639-33.5 68 5.96-3.1 5.3-12.9 16.9-11.6 20.4-40.7 84.9-28.1zm-22.1 12.3-55.8 17 6.98-13.7z"/>
			<path d="m254 65.2 10.8-7.56 1.98 2.06-0.53 19.6 22.3-17.9 16.8-0.014-63.2 76.8-5.84 1.12-5.87 4.3-2.53-0.281-18.9 20.7-1.54-1.38 64.5-78.6-7.38 4.85-9.82-11z"/>
			<path d="m268 69.6 1.81 3.47-64.5 48.7-16.5-11.4 32.1-39.2 5.77-1.75 4.32-5.11 4.43-0.696 8.73-10.7 1.26 1.01-11.1 14.1-1.54 7.04-21.4 26.9 37.5-25.8 9.11 0.604z"/>
			<path d="m161 53.4-27.9 39.7 7.31 6.75 46.1-9.36 4.25-6.03 1.12-4.01-36.6 6.41 5.57-9.75 30-2.08 4.98-8.3-30.3 1.05 1.8-4.65 14.3-0.0549 2.62-3.13 20.8 0.387 4.4-5.56-23.1 0.348-3.29-1.58z"/>
			<path d="m135 3.63-0.438 5.81 8.03 14.2-124 81.4-4.83-0.984-2.93 1.76 22.6 11.2 76.4-4.98 4.54-2.15 13.3 0.805-0.23 1.82 9.77-8.78-2.64-4.83-5.46-0.619-31.5-27 56.3 2.64-8.18-67.9zm0.354 40.5 4.05 14.1-18.5-2.56zm-52.5 40 20.4 15.9-44.6-1.43z"/>
		</g>
		<g fill="#feef17">
			<path d="m260 61.8 10.8-7.56 1.98 2.06-0.53 19.6 22.3-17.9 16.8-0.014-63.2 76.8-5.84 1.12-5.87 4.3-2.53-0.281-18.9 20.7-1.54-1.38 64.5-78.6-7.38 4.85-9.82-11z"/>
			<path d="m403 53-82.8 5.01-15.4 30-13.7 4.94 6.05 5.19 3.98-0.639-33.5 68 5.96-3.1 5.3-12.9 16.9-11.6 20.4-40.7 84.9-28.1zm-22.1 12.3-55.8 17 6.98-13.7z"/>
			<path d="m372 79.1-10.9 28.1 9.08 6.29 23.2-15.9-4.65 10.1 10.2 5.36 28.8-49.7-3.63-6.89 1.44-2.83-0.211-3.1 1.33-2.16-2.28-1.38-22.9 36.7-24.4 15.9 5.93-15.7 0.409-5.96z"/>
			<path d="m409 106 26.5-49.5 1.2 0.418-0.416 3.87 3.78 0.297 7.32 26.1 15.5-26.6 13.9-0.661-25.1 45.9-10.5 0.77-5.69-21.7-11.7 18.9z"/>
			<path d="m465 105 4.39-8.44-2.18-5.5 19.7-38.1 2.64 2.6 12.8-0.613-9.25 17.7 79.8-38.5-0.147 2.05-4.76 3.11-6.24 8.39-20.1 10.3-2.55 3.18-33.9 17.1 19.1 10.4-2.12 3.54 5.97 3.31 0.101 3.14 1.47 1.06-0.123 4.11 53.7 29.8 3.35-1.35 6.62 3.78 0.967 3.44 2.35 0.927-0.175 4.37-91.3-49-0.933-1.33-17.1-10.3-14.7 26.2z"/>
			<path d="m163 57.2-27.9 39.7 7.31 6.75 46.1-9.36 4.25-6.03 1.12-4.01-36.6 6.41 5.57-9.75 30-2.08 4.98-8.3-30.3 1.05 1.8-4.65 14.3-0.0549 2.62-3.13 20.8 0.387 4.4-5.56-23.1 0.348-3.29-1.58z"/>
			<path d="m135-3.01-0.438 5.81 8.03 14.2-124 81.4-4.83-0.984-2.93 1.76 22.6 11.2 76.4-4.98 4.54-2.15 13.3 0.805-0.23 1.82 9.77-8.78-2.64-4.83-5.46-0.619-31.5-27 56.3 2.64-8.18-67.9zm0.354 40.5 4.05 14.1-18.5-2.56zm-52.5 40 20.4 15.9-44.6-1.43z"/>
			<path d="m270 63.4 1.81 3.47-64.5 48.7-16.5-11.4 32.1-39.2 5.77-1.75 4.32-5.11 4.43-0.696 8.73-10.7 1.26 1.01-11.1 14.1-1.54 7.04-21.4 26.9 37.5-25.8 9.11 0.604z"/>
		</g>
		<g transform="translate(0 -173)" clip-path="url(#text)" fill="#51bcdc">
			<g stroke-linecap="square">
				<path d="m36.5 219v5.67h107l30.4 30.4 4.01-4.01-32.1-32.1h-107z" color="#000000"/>
				<path d="m254 222-30.1 17.4h-176v1h177l30.1-17.4h256v-1h-0.5z"/>
				<path d="m46.2 227v1h235l62.3 36h239v-1h-239l-62.3-36h-235z"/>
			</g>
			<path d="m289 277v1h1v-1zm2 0v1h1v-1zm2 0v1h1v-1zm2 0v1h1v-1zm2 0v1h1v-1zm2 0v1h1v-1zm2 0v1h1v-1zm2 0v1h1v-1zm2 0v1h1v-1zm2 0v1h1v-1zm2 0v1h1v-1zm2 0v1h1v-1zm2 0v1h1v-1zm2 0v1h1v-1zm2 0v1h1v-1zm2 0v1h1v-1zm2 0v1h1v-1zm2 0v1h1v-1zm2 0v1h1v-1zm2 0v1h1v-1zm2 0v1h1v-1zm2 0v1h1v-1zm2 0v1h1v-1zm2 0v1h1v-1zm2 0v1h1v-1zm2 0v1h1v-1zm2 0v1h1v-1zm2 0v1h1v-1zm2 0v1h1v-1zm2 0v1h1v-1zm2 0v1h1v-1zm2 0v1h1v-1zm2 0v1h1v-1zm2 0v1h1v-1zm2 0v1h1v-1zm2 0v1h1v-1zm2 0v1h1v-1zm2 0v1h1v-1zm2 0v1h1v-1zm2 0v1h1v-1zm2 0v1h1v-1zm2 0v1h1v-1zm2 0v1h1v-1zm2 0v1h1v-1zm2 0v1h1v-1zm2 0v1h1v-1zm2 0v1h1v-1zm2 0v1h1v-1zm2 0v1h1v-1zm2 0v1h1v-1zm2 0v1h1v-1zm2 0v1h1v-1zm2 0v1h1v-1zm2 0v1h1v-1zm2 0v1h1v-1zm2 0v1h1v-1zm2 0v1h1v-1zm2 0v1h1v-1zm2 0v1h1v-1zm2 0v1h1v-1zm2 0v1h1v-1zm2 0v1h1v-1zm2 0v1h1v-1zm2 0v1h1v-1zm2 0v1h1v-1zm2 0v1h1v-1zm2 0v1h1v-1zm2 0v1h1v-1zm2 0v1h1v-1zm2 0v1h1v-1zm2 0v1h1v-1zm2 0v1h1v-1zm2 0v1h1v-1zm2 0v1h1v-1zm2 0v1h1v-1zm2 0v1h1v-1zm2 0v1h1v-1zm2 0v1h1v-1zm2 0v1h1v-1zm2 0v1h1v-1zm2 0v1h1v-1zm2 0v1h1v-1zm2 0v1h1v-1zm2 0v1h1v-1zm2 0v1h1v-1zm2 0v1h1v-1zm2 0v1h1v-1zm2 0v1h1v-1zm2 0v1h1v-1zm2 0v1h1v-1zm2 0v1h1v-1zm2 0v1h1v-1zm2 0v1h1v-1zm2 0v1h1v-1zm2 0v1h1v-1zm2 0v1h1v-1zm2 0v1h1v-1zm2 0v1h1v-1zm2 0v1h1v-1zm2 0v1h1v-1zm2 0v1h1v-1zm2 0v1h1v-1zm2 0v1h1v-1zm2 0v1h1v-1zm2 0v1h1v-1zm2 0v1h1v-1zm2 0v1h1v-1zm2 0v1h0.771v-1zm-215 0.525-0.867 0.5 0.5 0.867 0.867-0.5zm-1.73 1-0.865 0.5 0.5 0.867 0.865-0.5zm-1.73 1-0.865 0.5 0.5 0.867 0.865-0.5zm-1.73 1-0.865 0.5 0.5 0.867 0.865-0.5zm-1.73 1-0.865 0.5 0.5 0.867 0.865-0.5zm-1.73 1-0.867 0.5 0.5 0.867 0.867-0.5zm-1.73 1-0.867 0.5 0.5 0.867 0.867-0.5zm-1.73 1-0.865 0.5 0.5 0.867 0.865-0.5zm-1.73 1-0.865 0.5 0.5 0.867 0.865-0.5zm-1.73 1-0.865 0.5 0.5 0.867 0.865-0.5zm-1.73 1-0.867 0.5 0.5 0.867 0.867-0.5zm-1.73 1-0.867 0.5 0.5 0.867 0.867-0.5zm-1.73 1-0.865 0.5 0.5 0.867 0.865-0.5zm-1.73 1-0.865 0.5 0.5 0.867 0.865-0.5zm-1.73 1-0.865 0.5 0.5 0.867 0.865-0.5zm-1.73 1-0.867 0.5 0.5 0.867 0.867-0.5zm-1.73 1-0.867 0.5 0.5 0.867 0.867-0.5zm-1.73 1-0.865 0.5 0.5 0.867 0.865-0.5zm-1.73 1-0.865 0.5 0.5 0.867 0.865-0.5zm-1.73 1-0.865 0.5 0.5 0.867 0.865-0.5zm-1.73 1-0.867 0.5 0.5 0.867 0.867-0.5zm-18.5 0.834v1h1v-1zm2 0v1h1v-1zm2 0v1h1v-1zm2 0v1h1v-1zm2 0v1h1v-1zm2 0v1h1v-1zm2 0v1h1v-1zm2 0v1h1v-1zm2 0v1h1v-1z"  stroke-dasharray="1, 1"/>
			<path d="m58.1 270-0.723 0.721 0.707 0.707 0.43-0.428h1.98v-1zm3.39 0v1h3v-1zm4 0v1h3v-1zm4 0v1h3v-1zm4 0v1h3v-1zm4 0v1h3v-1zm4 0v1h3v-1zm4 0v1h3v-1zm4 0v1h3v-1zm4 0v1h3v-1zm4 0v1h3v-1zm4 0v1h3v-1zm4 0v1h3v-1zm4 0v1h3v-1zm4 0v1h3v-1zm4 0v1h3v-1zm4 0v1h3v-1zm4 0v1h3v-1zm4 0v1h3v-1zm4 0v1h3v-1zm4 0v1h3v-1zm4 0v1h3v-1zm4 0v1h3v-1zm4 0v1h3v-1zm4 0v1h3v-1zm4 0v1h3v-1zm4 0v1h3v-1zm4 0v1h3v-1zm4 0v1h3v-1zm4 0v1h3v-1zm4 0v1h3v-1zm4 0v1h3v-1zm4 0v1h3v-1zm4 0v1h3v-1zm4 0v1h3v-1zm4 0v1h3v-1zm4 0v1h3v-1zm4 0v1h3v-1zm4 0v1h3v-1zm4 0v1h3v-1zm4 0v1h3v-1zm4 0v1h3v-1zm4 0v1h3v-1zm4 0v1h3v-1zm4 0v1h3v-1zm4 0v1h3v-1zm4 0v1h3v-1zm4 0v1h3v-1zm4 0v1h3v-1zm4 0v1h3v-1zm4 0v1h3v-1zm4 0v1h3v-1zm4 0v1h3v-1zm4 0v1h3v-1zm4 0v1h3v-1zm4 0v1h3v-1zm4 0v1h3v-1zm4 0v1h3v-1zm4 0v1h3v-1zm4 0v1h3v-1zm4 0v1h3v-1zm4 0v1h3v-1zm4 0v1h3v-1zm4 0v1h3v-1zm4 0v1h3v-1zm4 0v1h3v-1zm4 0v1h3v-1zm4 0v1h3v-1zm4 0v1h3v-1zm4 0v1h3v-1zm4 0v1h3v-1zm4 0v1h3v-1zm4 0v1h3v-1zm4 0v1h3v-1zm4 0v1h3v-1zm4 0v1h3v-1zm4 0v1h3v-1zm4 0v1h3v-1zm4 0v1h3v-1zm4 0v1h3v-1zm4 0v1h3v-1zm4 0v1h3v-1zm4 0v1h3v-1zm4 0v1h3v-1zm4 0v1h3v-1zm4 0v1h3v-1zm4 0v1h3v-1zm4 0v1h3v-1zm4 0v1h3v-1zm4 0v1h3v-1zm4 0v1h3v-1zm4 0v1h3v-1zm4 0v1h3v-1zm4 0v1h3v-1zm4 0v1h3v-1zm4 0v1h3v-1zm4 0v1h3v-1zm4 0v1h3v-1zm4 0v1h3v-1zm4 0v1h3v-1zm4 0v1h3v-1zm4 0v1h3v-1zm4 0v1h3v-1zm4 0v1h3v-1zm4 0v1h3v-1zm4 0v1h3v-1zm4 0v1h3v-1zm4 0v1h3v-1zm4 0v1h3v-1zm4 0v1h3v-1zm4 0v1h3v-1zm4 0v1h3v-1zm4 0v1h3v-1zm4 0v1h3v-1zm4 0v1h3v-1zm4 0v1h3v-1zm4 0v1h3v-1zm4 0v1h3v-1zm4 0v1h3v-1zm4 0v1h3v-1zm4 0v1h3v-1zm4 0v1h3v-1zm4 0v1h3v-1zm4 0v1h3v-1zm4 0v1h3v-1zm4 0v1h3v-1zm4 0v1h3v-1zm4 0v1h3v-1zm4 0v1h3v-1zm4 0v1h3v-1zm4 0v1h3v-1zm-521 1.43-2.12 2.12 0.707 0.707 2.12-2.12zm-2.83 2.83-2.12 2.12 0.707 0.707 2.12-2.12zm-2.83 2.83-2.12 2.12 0.707 0.707 2.12-2.12zm-2.83 2.83-2.12 2.12 0.707 0.707 2.12-2.12zm-2.83 2.83-2.12 2.12 0.709 0.707 2.12-2.12zm-2.83 2.83-2.12 2.12 0.707 0.707 2.12-2.12zm-2.83 2.83-2.12 2.12 0.707 0.707 2.12-2.12z"  stroke-dasharray="3, 1"/>
			<path d="m490 233-4.79 4.79 2.12 2.12 3.92-3.92h2.22v-3zm6.46 0v3h9v-3zm12 0v3h9v-3zm12 0v3h9v-3zm12 0v3h9v-3zm-49.4 6.92-6.36 6.36 2.12 2.12 6.36-6.36zm-8.49 8.48-4.63 4.63h-1.21v3h2.45l5.51-5.51zm-119 4.63v3h1.8v-3zm4.8 0v3h9v-3zm12 0v3h9v-3zm12 0v3h9v-3zm12 0v3h9v-3zm12 0v3h9v-3zm12 0v3h9v-3zm12 0v3h9v-3zm12 0v3h9v-3zm12 0v3h9v-3z"  stroke-dasharray="9, 3"/>
			<path d="m34.1 249v3h6v-3zm9 0v3h1.5v-3zm4.5 0v3h6v-3zm9 0v3h1.5v-3zm4.5 0v3h6v-3zm9 0v3h1.5v-3zm4.5 0v3h6v-3zm9 0v3h1.5v-3zm4.5 0v3h6v-3zm9 0v3h1.5v-3zm4.5 0v3h6v-3zm9 0v3h1.5v-3zm4.5 0v3h6v-3zm9 0v3h1.5v-3zm4.5 0v3h6v-3zm9 0v3h1.5v-3zm4.5 0v3h6v-3zm9 0v3h1.5v-3zm4.5 0v3h5.64v-3z"  stroke-dasharray="6, 3, 1.5, 3"/>
			<path d="m24.1 257v3h6v-3zm9 0v3h1.5v-3zm4.5 0v3h6v-3zm9 0v3h1.5v-3zm4.5 0v3h6v-3zm9 0v3h1.5v-3zm4.5 0v3h6v-3zm9 0v3h1.5v-3zm4.5 0v3h6v-3zm9 0v3h1.5v-3zm4.5 0v3h6v-3zm9 0v3h1.5v-3zm4.5 0v3h6v-3zm9 0v3h1.5v-3zm4.5 0v3h6v-3zm9 0v3h1.5v-3zm4.5 0v3h6v-3zm9 0v3h1.5v-3zm4.5 0v3h6v-3zm9 0v3h1.5v-3zm4.5 0v3h6v-3zm9 0v3h1.5v-3zm4.5 0v3h6v-3zm9 0v3h1.5v-3zm4.5 0v3h6v-3zm9 0v3h1.5v-3zm4.5 0v3h6v-3zm9 0v3h1.5v-3zm4.5 0v3h6v-3zm9 0v3h1.5v-3zm4.5 0v3h6v-3zm9 0v3h1.5v-3zm4.5 0v3h6v-3zm9 0v3h1.5v-3zm4.5 0v3h6v-3zm9 0v3h1.5v-3zm4.5 0v3h6v-3zm9 0v3h1.5v-3zm4.5 0v3h6v-3zm9 0v3h1.5v-3zm4.5 0v3h6v-3zm9 0v3h1.5v-3zm4.5 0v3h6v-3zm9 0v3h0.248v-3z"  stroke-dasharray="6, 3, 1.5, 3"/>
			<path d="m330 237v1h1.66v-1zm2.66 0v1h3v-1zm4 0v1h3v-1zm4 0v1h3v-1zm4 0v1h3v-1zm4 0v1h3v-1zm4 0v1h3v-1zm4 0v1h3v-1zm4 0v1h3v-1zm4 0v1h3v-1zm4 0v1h3v-1zm4 0v1h3v-1zm4 0v1h3v-1zm4 0v1h3v-1zm4 0v1h3v-1zm4 0v1h3v-1zm4 0v1h3v-1zm4 0v1h3v-1zm4 0v1h3v-1zm4 0v1h3v-1zm4 0v1h3v-1zm4 0v1h3v-1zm4 0v1h3v-1zm4 0v1h3v-1zm4 0v1h3v-1zm4 0v1h3v-1zm4 0v1h3v-1zm4 0v1h3v-1zm4 0v1h3v-1zm4 0v1h3v-1zm4 0v1h3v-1zm4 0v1h3v-1zm4 0v1h1.33l1.48 0.396 0.258-0.965-1.61-0.432zm4.04 0.689-0.26 0.967 2.9 0.775 0.258-0.965zm3.86 1.04-0.26 0.967 2.9 0.775 0.26-0.965zm3.86 1.04-0.258 0.967 2.9 0.775 0.26-0.965zm3.86 1.04-0.258 0.967 2.9 0.775 0.26-0.965zm3.87 1.04-0.26 0.967 2.9 0.775 0.258-0.965zm3.86 1.04-0.26 0.967 2.9 0.775 0.258-0.965zm3.86 1.04-0.26 0.967 2.9 0.777 0.26-0.967zm3.86 1.04-0.258 0.967 2.9 0.777 0.26-0.967zm3.86 1.04-0.258 0.965 2.9 0.777 0.258-0.967z"  stroke-dasharray="3, 1"/>
			<path d="m314 287-1.48 0.852 0.5 0.865 1.48-0.852zm-2.34 1.35-2.6 1.5 0.5 0.865 2.6-1.5zm-3.46 2-2.6 1.5 0.5 0.865 2.6-1.5zm-3.46 2-2.6 1.5 0.5 0.865 2.6-1.5zm-3.46 2-2.6 1.5 0.5 0.865 2.6-1.5zm-3.46 2-2.6 1.5 0.5 0.865 2.6-1.5zm-3.46 2-2.6 1.5 0.5 0.865 2.6-1.5zm-3.46 2-2.6 1.5 0.5 0.865 2.6-1.5zm-3.46 2-2.6 1.5 0.5 0.865 2.6-1.5zm-3.46 2-2.6 1.5 0.5 0.865 2.6-1.5zm-3.46 2-2.6 1.5 0.5 0.865 2.6-1.5zm-3.46 2-2.6 1.5 0.5 0.865 2.6-1.5zm-3.46 2-2.6 1.5 0.5 0.865 2.6-1.5z"  stroke-dasharray="3, 1"/>
		</g>
	</g>
</svg>
